<?xml version="1.0" standalone="no"?>
<!DOCTYPE svg PUBLIC "-//W3C//DTD SVG 20010904//EN"
 "http://www.w3.org/TR/2001/REC-SVG-20010904/DTD/svg10.dtd">
<svg version="1.0" xmlns="http://www.w3.org/2000/svg"
 width="396.000000pt" height="396.000000pt" viewBox="0 0 396.000000 396.000000"
 preserveAspectRatio="xMidYMid meet">
<metadata>
Created by potrace 1.11, written by Peter Selinger 2001-2013
</metadata>
<g transform="translate(0.000000,396.000000) scale(0.100000,-0.100000)"
fill="#000000" stroke="none">
<path d="M1935 3904 c-16 -8 -204 -189 -417 -402 l-388 -387 225 -225 c124
-124 225 -229 225 -233 0 -4 -14 -26 -30 -49 -51 -71 -73 -162 -67 -281 3 -56
8 -113 12 -127 l8 -25 -25 23 c-17 15 -37 22 -66 22 -39 0 -49 -6 -126 -81
-46 -44 -92 -96 -101 -115 -32 -67 -24 -77 253 -357 l256 -257 -134 -135 c-74
-74 -139 -135 -145 -135 -5 0 -263 253 -572 562 l-563 563 -105 -105 c-115
-115 -140 -154 -130 -203 6 -25 148 -173 683 -709 372 -373 682 -678 688 -678
6 0 134 126 285 281 l273 280 280 -280 c155 -155 286 -281 291 -281 6 0 315
305 687 677 705 707 703 704 679 764 -5 13 -59 76 -119 139 l-110 115 -564
-563 c-310 -309 -568 -562 -573 -562 -13 0 -275 262 -275 275 0 6 115 125 255
265 163 163 256 264 260 280 3 15 2 37 -4 51 -5 13 -70 86 -145 162 l-136 138
0 53 c0 233 -181 424 -432 459 l-88 11 -140 141 -140 140 140 140 140 140 260
-260 260 -260 45 0 c44 0 47 2 165 120 l120 120 -387 387 c-214 214 -402 395
-420 403 -39 19 -51 19 -88 -1z m16 -1610 c162 -165 161 -162 35 -163 -117 -1
-178 51 -198 171 -11 62 -5 138 11 138 4 0 72 -66 152 -146z"/>
<path d="M705 2680 l-140 -140 105 -105 c168 -168 183 -170 324 -25 134 136
133 148 -35 308 -59 56 -108 102 -110 102 -2 0 -67 -63 -144 -140z"/>
<path d="M2999 2717 c-116 -110 -129 -129 -129 -178 0 -27 15 -47 96 -129 141
-145 156 -143 324 25 l105 105 -140 140 c-77 77 -142 140 -145 139 -3 0 -53
-46 -111 -102z"/>
<path d="M1945 516 c-16 -8 -79 -64 -140 -125 l-110 -111 105 -105 c57 -58
119 -112 138 -121 58 -27 85 -13 212 112 l115 113 -110 112 c-60 61 -124 117
-142 125 -38 16 -31 16 -68 0z"/>
</g>
</svg>
