<svg xmlns="http://www.w3.org/2000/svg" xmlns:xlink="http://www.w3.org/1999/xlink" width="395.98" height="395.987" viewBox="0 0 395.98 395.987">
  <defs>
    <clipPath id="clip-path">
      <rect id="Rectangle_16" data-name="Rectangle 16" width="102" height="59" transform="translate(0.015 -0.301)" fill="#fff" stroke="#707070" stroke-width="1"/>
    </clipPath>
  </defs>
  <g id="webinarspot-logo" transform="translate(-627.204 -1144.792) rotate(45)">
    <rect id="Rectangle_35" data-name="Rectangle 35" width="280" height="280" rx="10" transform="translate(1392.99 225.99)" fill="#b2ebf2"/>
    <path id="Rectangle_19" data-name="Rectangle 19" d="M0,0H200a0,0,0,0,1,0,0V40a0,0,0,0,1,0,0H10A10,10,0,0,1,0,30V0A0,0,0,0,1,0,0Z" transform="translate(1392.995 465.995)" fill="#00bcd4"/>
    <path id="Rectangle_21" data-name="Rectangle 21" d="M10,0H40a0,0,0,0,1,0,0V30A10,10,0,0,1,30,40H0a0,0,0,0,1,0,0V10A10,10,0,0,1,10,0Z" transform="translate(1632.995 465.995)" fill="#00bcd4"/>
    <path id="Rectangle_22" data-name="Rectangle 22" d="M0,0H161a0,0,0,0,1,0,0V30a10,10,0,0,1-10,10H0a0,0,0,0,1,0,0V0A0,0,0,0,1,0,0Z" transform="translate(1552.995 466.995) rotate(-90)" fill="#00bcd4"/>
    <path id="Rectangle_25" data-name="Rectangle 25" d="M10,0H200a0,0,0,0,1,0,0V40a0,0,0,0,1,0,0H10A10,10,0,0,1,0,30V10A10,10,0,0,1,10,0Z" transform="translate(1472.995 385.995)" fill="#00bcd4"/>
    <path id="Rectangle_26" data-name="Rectangle 26" d="M0,0H30A10,10,0,0,1,40,10V30A10,10,0,0,1,30,40H0a0,0,0,0,1,0,0V0A0,0,0,0,1,0,0Z" transform="translate(1392.995 385.995)" fill="#00bcd4"/>
    <rect id="Rectangle_27" data-name="Rectangle 27" width="162" height="40" transform="translate(1392.995 305.995)" fill="#00bcd4"/>
    <rect id="Rectangle_28" data-name="Rectangle 28" width="40" height="42" transform="translate(1392.995 264.995)" fill="#00bcd4"/>
    <path id="Rectangle_31" data-name="Rectangle 31" d="M10,0H120a0,0,0,0,1,0,0V30a10,10,0,0,1-10,10H0a0,0,0,0,1,0,0V10A10,10,0,0,1,10,0Z" transform="translate(1392.995 225.995)" fill="#00bcd4"/>
    <path id="Rectangle_33" data-name="Rectangle 33" d="M0,0H40a0,0,0,0,1,0,0V30A10,10,0,0,1,30,40H10A10,10,0,0,1,0,30V0A0,0,0,0,1,0,0Z" transform="translate(1552.995 225.995)" fill="#00bcd4"/>
    <path id="Rectangle_34" data-name="Rectangle 34" d="M0,0H162a0,0,0,0,1,0,0V30a10,10,0,0,1-10,10H0a0,0,0,0,1,0,0V0A0,0,0,0,1,0,0Z" transform="translate(1632.995 387.995) rotate(-90)" fill="#00bcd4"/>
    <path id="Rectangle_36" data-name="Rectangle 36" d="M0,0H40a0,0,0,0,1,0,0V30A10,10,0,0,1,30,40H0a0,0,0,0,1,0,0V0A0,0,0,0,1,0,0Z" transform="translate(1553.092 386.092)" fill="#00bcd4"/>
    <g id="Group_10" data-name="Group 10" transform="translate(1442.858 390.635) rotate(-45)">
      <g id="Group-1" transform="translate(30.996 -38.54)">
        <path id="Path_1" data-name="Path 1" d="M46.664-785.744a55.853,55.853,0,0,0-13.448,2.951C13.376-775.577.054-757.115,0-736.818q-.027,22.025,22.738,56.141a343.51,343.51,0,0,0,26.1,33.7l2.2,2.483.792-.864c4.537-4.912,12.224-14.2,17.607-21.287,21.262-27.981,32.82-52.453,32.82-69.457a49.934,49.934,0,0,0-2.971-17.022,54.766,54.766,0,0,0-7.471-13.3,51.749,51.749,0,0,0-28.355-18.048A54.942,54.942,0,0,0,46.664-785.744ZM56.008-770a35.466,35.466,0,0,1,14.385,5.29,35.453,35.453,0,0,1,15.375,21.5,39.18,39.18,0,0,1,.576,13.442,35.578,35.578,0,0,1-22.576,27.747,39.915,39.915,0,0,1-6.787,1.853,49.1,49.1,0,0,1-12.152-.09A35.315,35.315,0,0,1,25.636-710.4a34.748,34.748,0,0,1-4.915-6.136A35.146,35.146,0,0,1,19.065-750.4a32.628,32.628,0,0,1,6.409-9.069A35.328,35.328,0,0,1,46.2-769.981,44.7,44.7,0,0,1,56.008-770Z" transform="translate(0 785.929)" fill="#ffa000"/>
      </g>
      <g id="Group_6" data-name="Group 6" transform="translate(30.996 -38.507)">
        <path id="Path_8" data-name="Path 8" d="M281.2,119.466c-16.467,0-20.939-11.995-20.939-23.379,0-11.181,4.879-23.176,20.939-23.176,15.857,0,20.736,11.994,20.736,23.176C301.941,107.471,297.468,119.466,281.2,119.466Zm0-70.341c-28.055,0-51.231,18.7-51.231,46.758,0,28.665,22.566,46.555,51.231,46.555,28.462,0,51.028-17.89,51.028-46.555C332.232,67.828,309.056,49.125,281.2,49.125Z" transform="translate(-229.974 -49.125)" fill="#ffa000"/>
        <g id="Group_1" data-name="Group 1" transform="translate(0.155 78.126)" clip-path="url(#clip-path)">
          <path id="map-marker" d="M56.129,62.711c-10.085,0-18.26-7.153-18.26-15.977s8.175-15.977,18.26-15.977,18.26,7.153,18.26,15.977-8.175,15.977-18.26,15.977M56.129,2C27.891,2,5,22.028,5,46.735c0,33.551,51.129,83.079,51.129,83.079s51.129-49.528,51.129-83.079C107.258,22.028,84.367,2,56.129,2Z" transform="translate(-5.155 -72.603)" fill="#ffa000"/>
        </g>
      </g>
    </g>
  </g>
</svg>
